<svg width="22" height="22" viewBox="0 0 22 22" fill="none" xmlns="http://www.w3.org/2000/svg">
<path d="M18.6389 0C20.4952 0 22 1.50482 22 3.36111V18.6389C22 20.4952 20.4952 22 18.6389 22H3.36111C1.50482 22 0 20.4952 0 18.6389V3.36111C0 1.50482 1.50482 0 3.36111 0H18.6389ZM18.6389 1.83333H3.36111C2.51734 1.83333 1.83333 2.51734 1.83333 3.36111V18.6389C1.83333 19.4827 2.51734 20.1667 3.36111 20.1667H18.6389C19.4827 20.1667 20.1667 19.4827 20.1667 18.6389V3.36111C20.1667 2.51734 19.4827 1.83333 18.6389 1.83333ZM5.80556 7.33738C6.26963 7.33738 6.65316 7.68075 6.71385 8.12625L6.72222 8.2501V16.2024C6.72222 16.7065 6.31182 17.1152 5.80556 17.1152C5.34148 17.1152 4.95796 16.7718 4.89726 16.3263L4.88889 16.2024V8.2501C4.88889 7.74602 5.29929 7.33738 5.80556 7.33738ZM16.1944 4.89293C16.6585 4.89293 17.042 5.22832 17.1027 5.66346L17.1111 5.78443V16.2237C17.1111 16.716 16.7007 17.1152 16.1944 17.1152C15.7304 17.1152 15.3468 16.7798 15.2861 16.3446L15.2778 16.2237V5.78443C15.2778 5.29207 15.6882 4.89293 16.1944 4.89293ZM10.9696 11C11.4227 10.9956 11.8005 11.3259 11.8641 11.7586L11.8734 11.879L11.9166 16.2146C11.9215 16.7049 11.5247 17.1063 11.0304 17.1112C10.5773 17.1156 10.1995 16.7853 10.1359 16.3526L10.1266 16.2322L10.0834 11.8966C10.0785 11.4063 10.4753 11.0049 10.9696 11Z" fill="#466288"/>
</svg>
