<svg width="19" height="19" viewBox="0 0 19 19" fill="none" xmlns="http://www.w3.org/2000/svg">
<path d="M10.9514 15.8187C11.6235 15.8187 12.1682 16.3635 12.1682 17.0355C12.1682 17.7076 11.6235 18.2523 10.9514 18.2523H1.21682C0.544796 18.2523 0 17.7076 0 17.0355C0 16.3635 0.544796 15.8187 1.21682 15.8187H10.9514ZM2.79004 2.79004C3.22869 2.3514 3.91891 2.31766 4.39626 2.68882L4.51089 2.79004L13.0286 11.3078C13.5038 11.783 13.5038 12.5535 13.0286 13.0286C12.59 13.4673 11.8998 13.501 11.4224 13.1299L11.3078 13.0286L2.79004 4.51089C2.31485 4.03569 2.31485 3.26525 2.79004 2.79004ZM17.0355 0C17.7076 0 18.2523 0.544796 18.2523 1.21682V10.9514C18.2523 11.6235 17.7076 12.1682 17.0355 12.1682C16.3635 12.1682 15.8187 11.6235 15.8187 10.9514V1.21682C15.8187 0.544796 16.3635 0 17.0355 0Z" fill="#466288"/>
</svg>
