<svg width="17" height="27" viewBox="0 0 17 27" fill="none" xmlns="http://www.w3.org/2000/svg">
<path d="M15.9867 13.6991C16.4174 13.6991 16.7666 13.3499 16.7666 12.9192V8.72548C16.7666 8.56212 16.7153 8.40288 16.6199 8.2702L12.4818 2.51586C12.3353 2.3121 12.0997 2.19128 11.8487 2.19128H9.16315V0.779859C9.16315 0.349153 8.814 0 8.38329 0C7.95259 0 7.60343 0.349153 7.60343 0.779859V2.19128H4.91791C4.66694 2.19128 4.43129 2.31205 4.28477 2.51586L0.146672 8.2702C0.0512815 8.40283 0 8.56212 0 8.72548V25.268C0 25.6987 0.349153 26.0479 0.779859 26.0479H15.9868C16.4175 26.0479 16.7666 25.6987 16.7666 25.268V17.3635C16.7666 16.9328 16.4175 16.5836 15.9868 16.5836C15.5561 16.5836 15.2069 16.9328 15.2069 17.3635V24.4882H1.55967V13.6991H15.9867ZM1.55967 8.97675L5.31763 3.75094H7.60343V4.83432C6.19253 5.18439 5.14349 6.46099 5.14349 7.97864C5.14349 9.765 6.59688 11.2184 8.38324 11.2184C10.1696 11.2184 11.623 9.765 11.623 7.97864C11.623 6.46104 10.574 5.18439 9.16305 4.83432V3.75094H11.4489L15.2068 8.97675V12.1394H1.55967V8.97675ZM8.38329 6.29855C9.30967 6.29855 10.0634 7.05226 10.0634 7.97864C10.0634 8.90501 9.30967 9.65872 8.38329 9.65872C7.45691 9.65872 6.70321 8.90501 6.70321 7.97864C6.70321 7.05221 7.45691 6.29855 8.38329 6.29855Z" fill="#466288"/>
<path d="M10.6971 18.1186C9.75401 18.1186 9.23463 18.5918 9.23463 19.4509V20.6822C9.23463 21.5414 9.75401 22.0146 10.6971 22.0146C11.6265 22.0146 12.1595 21.529 12.1595 20.6822V19.4509C12.1595 18.6042 11.6265 18.1186 10.6971 18.1186ZM10.4339 19.4509C10.4339 19.2654 10.5053 19.1964 10.697 19.1964C10.9227 19.1964 10.9689 19.2981 10.9689 19.4509V20.6822C10.9689 20.8349 10.9227 20.9366 10.697 20.9366C10.5052 20.9366 10.4339 20.8677 10.4339 20.6822V19.4509Z" fill="#466288"/>
<path d="M9.85311 14.9709C9.62464 14.9709 9.4338 15.0866 9.3435 15.2786L6.30058 21.5291C6.26161 21.6071 6.24014 21.6913 6.24014 21.7662C6.24014 22.0663 6.50022 22.3875 6.88747 22.3875C7.12196 22.3875 7.33777 22.2628 7.42308 22.0799L10.4748 15.8292C10.5175 15.7436 10.5265 15.653 10.5265 15.5922C10.5264 15.2205 10.1784 14.9709 9.85311 14.9709Z" fill="#466288"/>
<path d="M6.06956 15.3264C5.12649 15.3264 4.60711 15.7996 4.60711 16.6587V17.89C4.60711 18.7492 5.12649 19.2224 6.06956 19.2224C6.99899 19.2224 7.532 18.7368 7.532 17.89V16.6587C7.532 15.812 6.99894 15.3264 6.06956 15.3264ZM5.80638 16.6587C5.80638 16.4732 5.87776 16.4043 6.06956 16.4043C6.29519 16.4043 6.34143 16.506 6.34143 16.6587V17.89C6.34143 18.0428 6.29519 18.1445 6.06956 18.1445C5.87771 18.1445 5.80638 18.0755 5.80638 17.89V16.6587Z" fill="#466288"/>
</svg>
