<svg width="13" height="16" viewBox="0 0 13 16" fill="none" xmlns="http://www.w3.org/2000/svg">
<path d="M4 5H5V13H4V5Z" fill="#C85050"/>
<path d="M6 5H7V13H6V5Z" fill="#C85050"/>
<path d="M8 5H9V13H8V5Z" fill="#C85050"/>
<path d="M0 2H13V3H0V2Z" fill="#C85050"/>
<path d="M9 2H8V1.5C8 1.2 7.8 1 7.5 1H5.5C5.2 1 5 1.2 5 1.5V2H4V1.5C4 0.65 4.65 0 5.5 0H7.5C8.35 0 9 0.65 9 1.5V2Z" fill="#C85050"/>
<path d="M9.5 16H3.5C2.7 16 2 15.35 1.9 14.55L1 2.54998L2 2.44998L2.9 14.45C2.9 14.75 3.2 15 3.5 15H9.5C9.8 15 10.05 14.75 10.1 14.45L11 2.44998L12 2.54998L11.1 14.55C11 15.35 10.3 16 9.5 16Z" fill="#C85050"/>
</svg>
