<svg width="22" height="22" viewBox="0 0 22 22" fill="none" xmlns="http://www.w3.org/2000/svg">
<path d="M9.00957 2.64987C9.44862 2.64987 9.80454 3.00579 9.80454 3.44484V11.9244H18.2841C18.6866 11.9244 19.0192 12.2235 19.0718 12.6115L19.0791 12.7194C19.0791 17.9879 14.8081 21.729 9.53955 21.729C4.271 21.729 0 17.458 0 12.1894C0 6.92088 3.74103 2.64987 9.00957 2.64987ZM8.21461 4.27902L7.99318 4.30417C4.08271 4.80321 1.58992 8.14332 1.58992 12.1894C1.58992 16.5799 5.14909 20.139 9.53955 20.139C13.5857 20.139 16.9258 17.6463 17.4248 13.7358L17.4489 13.5144H9.00957C8.60712 13.5144 8.27451 13.2153 8.22187 12.8273L8.21461 12.7194V4.27902ZM12.1894 0C17.458 0 21.729 4.271 21.729 9.53955C21.729 9.97859 21.3731 10.3345 20.934 10.3345H12.1894C11.7504 10.3345 11.3945 9.97859 11.3945 9.53955V0.794962C11.3945 0.355917 11.7504 0 12.1894 0ZM12.9844 1.62914V8.74459H20.0988L20.0747 8.52316C19.6181 4.94549 16.7835 2.11087 13.2058 1.65429L12.9844 1.62914Z" fill="#466288"/>
</svg>
